<?xml version="1.0" encoding="UTF-8" standalone="no"?>
<svg
   xmlns:dc="http://purl.org/dc/elements/1.1/"
   xmlns:cc="http://creativecommons.org/ns#"
   xmlns:rdf="http://www.w3.org/1999/02/22-rdf-syntax-ns#"
   xmlns:svg="http://www.w3.org/2000/svg"
   xmlns="http://www.w3.org/2000/svg"
   xmlns:sodipodi="http://sodipodi.sourceforge.net/DTD/sodipodi-0.dtd"
   xmlns:inkscape="http://www.inkscape.org/namespaces/inkscape"
   width="148"
   height="25"
   version="1.1"
   id="svg3690"
   sodipodi:docname="logo-bookmark.svg.2022_10_25_16_50_58.0.svg"
   inkscape:version="0.92.1 r15371">
  <metadata
     id="metadata3696">
    <rdf:RDF>
      <cc:Work
         rdf:about="">
        <dc:format>image/svg+xml</dc:format>
        <dc:type
           rdf:resource="http://purl.org/dc/dcmitype/StillImage" />
      </cc:Work>
    </rdf:RDF>
  </metadata>
  <defs
     id="defs3694" />
  <sodipodi:namedview
     pagecolor="#ffffff"
     bordercolor="#666666"
     borderopacity="1"
     objecttolerance="10"
     gridtolerance="10"
     guidetolerance="10"
     inkscape:pageopacity="0"
     inkscape:pageshadow="2"
     inkscape:window-width="1360"
     inkscape:window-height="705"
     id="namedview3692"
     showgrid="false"
     inkscape:snap-others="false"
     inkscape:zoom="2.5608108"
     inkscape:cx="74"
     inkscape:cy="12.5"
     inkscape:window-x="-8"
     inkscape:window-y="-8"
     inkscape:window-maximized="1"
     inkscape:current-layer="svg3690" />
  <g
     fill="none"
     fill-rule="evenodd"
     id="g3688">
    <path
       d="M37 6.299h5.227c.746 0 1.434.155 2.062.466.629.311 1.123.735 1.484 1.27s.542 1.12.542 1.754c0 .672-.165 1.254-.495 1.746-.33.491-.762.868-1.297 1.129v.15c.697.248 1.25.643 1.661 1.185.41.541.616 1.191.616 1.95 0 .735-.196 1.385-.588 1.951a3.817 3.817 0 0 1-1.587 1.307c-.665.305-1.403.457-2.212.457H37V6.299zm5.04 5.45c.548 0 .986-.152 1.316-.457.33-.305.495-.688.495-1.148 0-.448-.159-.824-.476-1.13-.318-.304-.738-.457-1.26-.457H39.52v3.192h2.52zm.28 5.619c.61 0 1.086-.159 1.428-.476.342-.317.513-.731.513-1.241 0-.51-.174-.927-.522-1.251-.349-.324-.847-.485-1.494-.485H39.52v3.453h2.8zm12.927 2.595c-1.307 0-2.492-.308-3.556-.924a6.711 6.711 0 0 1-2.511-2.53c-.61-1.07-.915-2.246-.915-3.528 0-1.281.305-2.457.915-3.528a6.711 6.711 0 0 1 2.51-2.529C52.756 6.308 53.94 6 55.248 6c1.306 0 2.492.308 3.556.924a6.711 6.711 0 0 1 2.51 2.53c.61 1.07.915 2.246.915 3.527 0 1.282-.305 2.458-.915 3.528a6.711 6.711 0 0 1-2.51 2.53c-1.064.616-2.25.924-3.556.924zm0-2.39a4.52 4.52 0 0 0 2.258-.578 4.177 4.177 0 0 0 1.615-1.624c.392-.697.588-1.494.588-2.39 0-.896-.196-1.692-.588-2.389a4.177 4.177 0 0 0-1.615-1.624 4.52 4.52 0 0 0-2.258-.579 4.47 4.47 0 0 0-2.25.579 4.195 4.195 0 0 0-1.605 1.624c-.392.697-.588 1.493-.588 2.39 0 .895.196 1.692.588 2.389a4.195 4.195 0 0 0 1.605 1.624 4.47 4.47 0 0 0 2.25.578zm15.353 2.39c-1.307 0-2.492-.308-3.556-.924a6.711 6.711 0 0 1-2.51-2.53c-.61-1.07-.915-2.246-.915-3.528 0-1.281.305-2.457.914-3.528a6.711 6.711 0 0 1 2.511-2.529C68.108 6.308 69.294 6 70.6 6c1.307 0 2.492.308 3.556.924a6.711 6.711 0 0 1 2.51 2.53c.61 1.07.915 2.246.915 3.527 0 1.282-.305 2.458-.914 3.528a6.711 6.711 0 0 1-2.511 2.53c-1.064.616-2.25.924-3.556.924zm0-2.39a4.52 4.52 0 0 0 2.259-.578 4.177 4.177 0 0 0 1.614-1.624c.392-.697.588-1.494.588-2.39 0-.896-.196-1.692-.588-2.389a4.177 4.177 0 0 0-1.614-1.624 4.52 4.52 0 0 0-2.259-.579 4.47 4.47 0 0 0-2.25.579 4.195 4.195 0 0 0-1.605 1.624c-.392.697-.588 1.493-.588 2.39 0 .895.196 1.692.588 2.389a4.195 4.195 0 0 0 1.606 1.624 4.47 4.47 0 0 0 2.249.578zM79.83 6.3h2.52v5.73h.15l4.89-5.73h3.043v.149L85.6 11.973l5.338 7.542v.149h-3.08l-3.994-5.693-1.512 1.773v3.92h-2.52V6.299zM93.779 6h3.248l3.546 9.39h.15L104.268 6h3.267v13.365h-2.501v-6.589l.15-2.221h-.15l-3.398 8.81h-1.96l-3.416-8.81h-.149l.15 2.221v6.59h-2.483V6zm20.8 0h2.894l5.021 13.365h-2.781l-1.12-3.192h-5.115l-1.12 3.192h-2.781L114.579 6zm3.193 7.859l-1.176-3.36-.486-1.606h-.149l-.485 1.606-1.195 3.36h3.49zM124.553 6h4.872c.871 0 1.646.18 2.324.541.678.361 1.204.862 1.577 1.503.374.64.56 1.366.56 2.175 0 .858-.27 1.62-.812 2.286a4.617 4.617 0 0 1-2.044 1.447l-.018.13 3.584 5.134v.15h-2.894l-3.453-5.022h-1.176v5.021h-2.52V6zm4.853 6.03c.573 0 1.04-.175 1.4-.523.361-.349.542-.79.542-1.326 0-.51-.172-.945-.514-1.306-.342-.361-.806-.542-1.39-.542h-2.371v3.696h2.333zm7.23-6.03h2.52v5.73h.15l4.89-5.73h3.043v.15l-4.835 5.525 5.34 7.541v.15h-3.08l-3.996-5.694-1.512 1.773v3.92h-2.52V6z"
       fill="#242A45"
       fill-rule="nonzero"
       id="path3680" />
    <g
       id="g3686">
      <circle
         fill="#5267DF"
         cx="12.5"
         cy="12.5"
         r="12.5"
         id="circle3682" />
      <path
         d="M9 9v10l3.54-3.44L16.078 19V9a2 2 0 0 0-2-2H11a2 2 0 0 0-2 2z"
         fill="#FFF"
         id="path3684" />
    </g>
  </g>
  <path
     style="fill:#008000;stroke-width:0.11925866"
     d="M 79.927156,12.988961 V 6.3701048 h 1.192586 1.192587 v 2.8622079 c 0,1.6057423 0.04688,2.8622083 0.106785,2.8622083 0.05873,0 1.199143,-1.286438 2.534246,-2.8587501 l 2.427462,-2.8587496 1.52399,-0.00346 1.52399,-0.00346 -2.453648,2.7976454 -2.453649,2.7976453 2.612995,3.687292 c 1.437148,2.02801 2.650241,3.747554 2.695762,3.82121 0.05962,0.09646 -0.344499,0.132863 -1.444819,0.130144 l -1.527586,-0.0038 -1.948058,-2.798802 c -1.071432,-1.539342 -1.99241,-2.798803 -2.046618,-2.798803 -0.05421,0 -0.425325,0.378722 -0.824706,0.841604 l -0.726146,0.841604 v 1.960975 1.960974 h -1.192587 -1.192586 z"
     id="path4503"
     inkscape:connector-curvature="0" />
  <path
     style="fill:#ffffff;stroke-width:0.11925866"
     d="M 79.927156,12.988961 V 6.3701048 h 1.192586 1.192587 v 2.8622079 c 0,1.7413963 0.04466,2.8622083 0.114045,2.8622083 0.06272,0 1.220006,-1.287994 2.571738,-2.8622083 l 2.457693,-2.8622079 h 1.430465 c 0.986168,0 1.405957,0.039657 1.351556,0.127679 -0.0434,0.070223 -1.119896,1.3138735 -2.392212,2.7636666 -1.272316,1.4497936 -2.313301,2.6693136 -2.313301,2.7100466 0,0.04073 1.175914,1.735318 2.613143,3.765745 l 2.613143,3.691686 -0.351141,0.09387 c -0.193127,0.05163 -0.839367,0.07846 -1.436089,0.05963 l -1.084949,-0.03424 -1.889711,-2.674462 c -1.03934,-1.470954 -1.949738,-2.732114 -2.023106,-2.802578 -0.09655,-0.09273 -0.344413,0.100949 -0.897335,0.70117 l -0.763939,0.829287 v 2.003106 2.003106 h -1.192587 -1.192586 z"
     id="path4505"
     inkscape:connector-curvature="0" />
  <path
     style="fill:#ffffff;stroke-width:0.11925866"
     d="m 69.73054,19.829352 c -2.764604,-0.255019 -5.195475,-2.393304 -5.84301,-5.139731 -0.936539,-3.972191 1.525474,-7.8121156 5.45981,-8.5154968 3.534459,-0.6318911 6.859101,1.3986518 7.90497,4.8280028 0.666311,2.184801 0.01863,5.014407 -1.524025,6.658184 -1.579225,1.682745 -3.548613,2.39496 -5.997745,2.169041 z m 2.826013,-2.632018 c 2.305373,-1.063611 3.220427,-4.021372 2.006791,-6.486618 -1.322411,-2.6861977 -5.205119,-3.1866674 -7.26205,-0.9360567 -1.827127,1.9991677 -1.516836,5.4613847 0.627541,7.0020647 0.189722,0.136311 0.645887,0.374698 1.013698,0.529748 0.576847,0.24317 0.824443,0.276577 1.801706,0.243101 0.917503,-0.03143 1.26215,-0.09841 1.812314,-0.352239 z"
     id="path4507"
     inkscape:connector-curvature="0" />
  <path
     style="fill:#ffffff;stroke-width:0.11925866"
     d="m 54.378584,19.830507 c -5.381969,-0.55819 -7.907955,-6.960476 -4.46576,-11.3187732 2.116149,-2.6793384 6.350506,-3.2401888 9.296911,-1.2313974 1.281147,0.8734568 2.074165,1.9341441 2.618504,3.5023386 0.393058,1.132362 0.387396,3.294291 -0.01165,4.451434 -1.077565,3.124647 -4.030998,4.949755 -7.438001,4.596398 z m 2.784479,-2.625302 c 0.36863,-0.172121 0.888817,-0.510423 1.155973,-0.751782 1.804745,-1.63048 1.931144,-4.834141 0.262751,-6.6596278 -2.117443,-2.3168206 -6.070733,-1.7494473 -7.354913,1.0555718 -1.219943,2.664705 -0.0034,5.716184 2.616747,6.563496 0.308258,0.09969 0.917515,0.151456 1.575879,0.133904 0.869291,-0.02317 1.200739,-0.08811 1.743563,-0.341562 z"
     id="path4509"
     inkscape:connector-curvature="0" />
  <path
     style="fill:#ffffff;stroke-width:0.11925866"
     d="M 37.113296,12.990274 V 6.3556655 l 3.13054,0.037034 3.13054,0.037034 0.715551,0.3344181 c 1.180543,0.5517346 1.856416,1.3409093 2.092943,2.4437972 0.254963,1.1888512 -0.284037,2.5230642 -1.263932,3.1286732 -0.488101,0.301662 -0.52733,0.537806 -0.106873,0.643334 0.167602,0.04206 0.592313,0.356465 0.943802,0.698666 0.51116,0.497652 0.679572,0.762696 0.841427,1.324222 0.504261,1.749442 -0.446603,3.528447 -2.274881,4.256153 -0.673965,0.268257 -0.872375,0.284501 -3.959319,0.324146 l -3.249798,0.04174 z m 6.296168,4.191713 c 0.887333,-0.473048 1.170206,-1.837529 0.536958,-2.5901 C 43.433737,13.982594 43.045283,13.8834 41.171921,13.8834 h -1.673452 v 1.801879 1.801878 l 1.759065,-0.04786 c 1.381663,-0.03759 1.843353,-0.0928 2.15193,-0.257306 z M 43.088583,11.545161 C 43.920256,11.064833 44.154767,9.8150031 43.537261,9.1539264 43.01245,8.5920854 42.718972,8.5167607 41.054754,8.5167607 h -1.556285 v 1.6851783 1.685179 L 41.091,11.833107 c 1.29815,-0.04403 1.667405,-0.09725 1.997583,-0.287946 z"
     id="path4511"
     inkscape:connector-curvature="0" />
  <path
     style="fill:#ffffff;stroke-width:0.11925866"
     d="M 93.880419,12.690814 V 6.0123288 h 1.541105 1.541105 l 0.423664,1.1031426 c 0.233016,0.6067284 1.02984,2.7090222 1.770722,4.6717636 0.740881,1.962742 1.405305,3.588038 1.476495,3.611768 0.074,0.02468 0.88961,-1.974384 1.90574,-4.671277 l 1.7763,-4.7144238 1.58018,-4.867e-4 1.58018,-4.867e-4 v 6.6188562 6.618855 h -1.20655 -1.20654 l 0.0466,-4.353874 c 0.0257,-2.406723 6.2e-4,-4.338558 -0.0562,-4.319628 -0.0565,0.01884 -0.55604,1.213332 -1.11008,2.654438 -0.55404,1.441106 -1.30648,3.387015 -1.67208,4.324242 l -0.66474,1.704049 -0.96968,-0.03443 -0.969673,-0.03443 -1.670873,-4.321892 c -1.063207,-2.750099 -1.730144,-4.322341 -1.833849,-4.323126 -0.117251,-8.83e-4 -0.141165,0.09078 -0.08524,0.326726 0.04276,0.180379 0.110156,2.166036 0.149776,4.412571 l 0.07204,4.084609 h -1.209201 -1.2092 z"
     id="path4513"
     inkscape:connector-curvature="0" />
  <path
     style="fill:#ffffff;stroke-width:0.11925866"
     d="m 109.7289,19.19038 c 0,-0.04708 3.43721,-9.2854509 4.64786,-12.4923139 l 0.25888,-0.6857373 h 1.39372 1.39371 l 2.44381,6.5123252 c 1.34409,3.581779 2.4623,6.562069 2.4849,6.622867 0.0242,0.065 -0.51124,0.09661 -1.29949,0.07672 l -1.34058,-0.03383 -0.53603,-1.522785 -0.53603,-1.522784 -2.62537,0.03205 -2.62538,0.03205 -0.21892,0.655923 c -0.12041,0.360757 -0.35903,1.045004 -0.53026,1.520548 l -0.31133,0.864625 h -1.29974 c -0.71486,0 -1.29975,-0.02685 -1.29975,-0.05966 z m 7.24301,-7.814393 c -0.46463,-1.3790768 -0.8909,-2.4920419 -0.94726,-2.4732553 -0.0784,0.026139 -1.30754,3.4226453 -1.72688,4.7719663 -0.0598,0.192382 0.0753,0.208702 1.72703,0.208702 h 1.79188 z"
     id="path4515"
     inkscape:connector-curvature="0" />
  <path
     style="fill:#ffffff;stroke-width:0.11925866"
     d="m 131.65024,19.160596 c -0.0982,-0.114786 -0.70711,-0.986865 -1.35322,-1.937953 -2.10862,-3.103917 -1.99842,-2.981467 -2.68308,-2.981467 h -0.59253 v 2.504432 2.504432 h -1.19259 -1.19259 V 12.61785 5.9856601 l 2.95165,0.053082 c 2.69234,0.048419 3.0114,0.076347 3.63163,0.3178914 1.95608,0.7617817 3.02025,2.9181461 2.43449,4.9330825 -0.24485,0.842268 -1.11299,1.825904 -2.03818,2.309331 -0.36207,0.189191 -0.65844,0.380633 -0.65859,0.425428 -1.6e-4,0.04479 0.80471,1.231902 1.78859,2.638015 0.98389,1.406113 1.78888,2.590373 1.78888,2.631689 0,0.04132 -0.60884,0.07512 -1.35299,0.07512 -1.14107,0 -1.38095,-0.03269 -1.53147,-0.208703 z m -1.28505,-7.334407 c 0.57281,-0.288849 1.06879,-1.049817 1.06879,-1.639807 0,-0.4375115 -0.47741,-1.3142454 -0.87289,-1.6030102 -0.29199,-0.2132011 -0.54695,-0.2506371 -1.93796,-0.2845539 l -1.60172,-0.039055 v 1.9173791 1.917379 h 1.40583 c 1.22073,0 1.4759,-0.03533 1.93795,-0.268332 z"
     id="path4517"
     inkscape:connector-curvature="0" />
  <path
     style="fill:#241f1c;stroke-width:0.11925866"
     d="m 142.72616,16.507091 c -1.10047,-1.574214 -2.02154,-2.862208 -2.04683,-2.862208 -0.0253,0 -0.39852,0.404213 -0.82939,0.89825 l -0.78341,0.898251 v 1.904328 1.904328 h -1.19259 -1.19258 V 12.631185 6.0123288 h 1.19258 1.19259 v 2.8622079 c 0,2.3053903 0.0309,2.8622083 0.15898,2.8622083 0.0874,0 1.25469,-1.287992 2.59388,-2.862204 l 2.43489,-2.8622037 1.46092,-4.3e-6 c 0.80351,-2.3e-6 1.46092,0.027965 1.46092,0.06215 0,0.034185 -1.05991,1.2715158 -2.35536,2.7496246 -1.29545,1.4781084 -2.3683,2.7515494 -2.38411,2.8298684 -0.0158,0.07832 1.15143,1.805582 2.59387,3.838362 1.44245,2.03278 2.62263,3.736689 2.62263,3.786463 0,0.04977 -0.65838,0.0905 -1.46307,0.0905 h -1.46307 z"
     id="path4519"
     inkscape:connector-curvature="0" />
  <path
     style="fill:#241f1c;stroke-width:0.11925866"
     d="m 142.72616,16.507091 c -1.10047,-1.574214 -2.02154,-2.862208 -2.04683,-2.862208 -0.0253,0 -0.39852,0.404213 -0.82939,0.89825 l -0.78341,0.898251 v 1.904328 1.904328 h -1.19259 -1.19258 V 12.631185 6.0123288 h 1.19258 1.19259 V 8.807869 c 0,1.687478 0.0461,2.824028 0.11629,2.867412 0.14106,0.08718 0.28145,-0.06426 2.95441,-3.187068 l 2.11705,-2.4733502 1.47552,-0.00127 c 1.3881,-0.00119 1.46584,0.011098 1.31211,0.2074356 -0.0899,0.1147865 -1.12952,1.3267148 -2.31033,2.6931743 -1.18081,1.3664593 -2.18977,2.5604143 -2.24214,2.6532333 -0.0658,0.116629 0.55849,1.099076 2.0209,3.180315 1.16387,1.656354 2.34713,3.341032 2.62947,3.74373 0.28234,0.402697 0.51334,0.764945 0.51334,0.804996 0,0.04005 -0.65838,0.07282 -1.46307,0.07282 h -1.46307 z"
     id="path4521"
     inkscape:connector-curvature="0" />
  <path
     style="fill:#ffffff;stroke-width:0.39050132"
     d=""
     id="path65"
     inkscape:connector-curvature="0" />
  <path
     style="fill:#ffffff;stroke-width:0.39050132"
     d="M 136.87071,12.760239 V 6.0957784 h 1.17151 1.1715 l 0.0106,2.8311345 0.0106,2.8311341 1.25857,-1.375131 c 0.69221,-0.7563223 1.83342,-2.0407173 2.53602,-2.8542107 1.08082,-1.2514038 1.48178,-1.4604995 2.6048,-1.3583777 l 1.32735,0.1207014 -2.30038,2.6961337 -2.30038,2.6961343 2.52671,3.649328 c 1.38969,2.00713 2.52671,3.737274 2.52671,3.844763 0,0.10749 -0.60849,0.195435 -1.35221,0.195435 -1.40846,0 -1.20753,0.211912 -4.9696,-5.241243 -0.16509,-0.239308 -0.57268,-0.115178 -1.05498,0.321296 -0.55218,0.499719 -0.82059,1.308113 -0.90246,2.717982 -0.10831,1.86519 -0.19227,2.015429 -1.19041,2.130278 l -1.07388,0.123563 z"
     id="path67"
     inkscape:connector-curvature="0" />
</svg>
